<svg width="42" height="14" viewBox="0 0 42 14" fill="none" xmlns="http://www.w3.org/2000/svg">
<path d="M6.5127 2.83984C6.5127 3.25879 6.42806 3.62272 6.25879 3.93164C6.08952 4.24056 5.85677 4.49447 5.56055 4.69336C5.26855 4.88802 4.93001 5.02767 4.54492 5.1123V5.15674C5.28548 5.24984 5.84408 5.48258 6.2207 5.85498C6.60156 6.22738 6.79199 6.72038 6.79199 7.33398C6.79199 7.87142 6.66292 8.35173 6.40479 8.7749C6.14665 9.19385 5.75098 9.52393 5.21777 9.76514C4.68457 10.0063 3.99902 10.127 3.16113 10.127C2.65755 10.127 2.18994 10.0868 1.7583 10.0063C1.33089 9.92594 0.924642 9.79688 0.539551 9.61914V8.29248C0.933105 8.48714 1.35205 8.63737 1.79639 8.74316C2.24072 8.84896 2.66178 8.90186 3.05957 8.90186C3.83398 8.90186 4.38623 8.75798 4.71631 8.47021C5.04639 8.17822 5.21143 7.7762 5.21143 7.26416C5.21143 6.93408 5.12467 6.66325 4.95117 6.45166C4.7819 6.24007 4.51742 6.08138 4.15771 5.97559C3.80225 5.86979 3.3431 5.81689 2.78027 5.81689H1.96143V4.61719H2.78662C3.32406 4.61719 3.7557 4.55371 4.08154 4.42676C4.40739 4.29557 4.64225 4.11572 4.78613 3.88721C4.93424 3.65869 5.0083 3.39209 5.0083 3.0874C5.0083 2.68962 4.87923 2.3807 4.62109 2.16064C4.36296 1.93636 3.97998 1.82422 3.47217 1.82422C3.15902 1.82422 2.87337 1.86019 2.61523 1.93213C2.36133 2.00407 2.12646 2.09505 1.91064 2.20508C1.69482 2.3151 1.48958 2.43359 1.29492 2.56055L0.577637 1.52588C0.928874 1.26351 1.34782 1.04134 1.83447 0.859375C2.32113 0.677409 2.88818 0.586426 3.53564 0.586426C4.48779 0.586426 5.22201 0.791667 5.73828 1.20215C6.25456 1.6084 6.5127 2.1543 6.5127 2.83984ZM9.99756 0.123047V2.60498C9.99756 2.86312 9.9891 3.11491 9.97217 3.36035C9.95947 3.60579 9.94466 3.79622 9.92773 3.93164H10.0103C10.1584 3.6862 10.3403 3.48519 10.5562 3.32861C10.772 3.16781 11.0132 3.0472 11.2798 2.9668C11.5506 2.88639 11.8384 2.84619 12.1431 2.84619C12.6805 2.84619 13.1375 2.93717 13.5142 3.11914C13.8908 3.29688 14.1785 3.57406 14.3774 3.95068C14.5806 4.32731 14.6821 4.81608 14.6821 5.41699V10H13.1904V5.69629C13.1904 5.15039 13.0783 4.74202 12.854 4.47119C12.6297 4.19613 12.2827 4.05859 11.813 4.05859C11.3602 4.05859 11.0005 4.15381 10.7339 4.34424C10.4715 4.53044 10.2832 4.80762 10.1689 5.17578C10.0547 5.53971 9.99756 5.98405 9.99756 6.50879V10H8.50586V0.123047H9.99756ZM22.9023 2.83984C23.791 2.83984 24.4618 3.03662 24.9146 3.43018C25.3716 3.82373 25.6001 4.43734 25.6001 5.271V10H24.54L24.2544 9.00342H24.2036C24.0047 9.25732 23.7995 9.4668 23.5879 9.63184C23.3763 9.79688 23.1309 9.9196 22.8516 10C22.5765 10.0846 22.2401 10.127 21.8423 10.127C21.4233 10.127 21.0488 10.0508 20.7188 9.89844C20.3887 9.74186 20.1284 9.50488 19.938 9.1875C19.7476 8.87012 19.6523 8.4681 19.6523 7.98145C19.6523 7.25781 19.9211 6.71403 20.4585 6.3501C21.0002 5.98617 21.8169 5.78516 22.9087 5.74707L24.1274 5.70264V5.33447C24.1274 4.84782 24.0132 4.50081 23.7847 4.29346C23.5604 4.0861 23.243 3.98242 22.8325 3.98242C22.4813 3.98242 22.1406 4.0332 21.8105 4.13477C21.4805 4.23633 21.1589 4.36117 20.8457 4.50928L20.3633 3.45557C20.7061 3.2736 21.0954 3.12549 21.5312 3.01123C21.9714 2.89697 22.4284 2.83984 22.9023 2.83984ZM24.1211 6.64209L23.2134 6.67383C22.4686 6.69922 21.946 6.82617 21.6455 7.05469C21.3451 7.2832 21.1948 7.59635 21.1948 7.99414C21.1948 8.34115 21.2985 8.59505 21.5059 8.75586C21.7132 8.91243 21.9862 8.99072 22.3247 8.99072C22.841 8.99072 23.2684 8.84473 23.6069 8.55273C23.9497 8.25651 24.1211 7.82275 24.1211 7.25146V6.64209ZM29.6943 13.123C28.7422 13.123 28.0122 12.9517 27.5044 12.6089C26.9966 12.2661 26.7427 11.7858 26.7427 11.168C26.7427 10.7363 26.8781 10.3703 27.1489 10.0698C27.4198 9.7736 27.807 9.56836 28.3105 9.4541C28.1201 9.36947 27.9551 9.23828 27.8154 9.06055C27.68 8.87858 27.6123 8.67757 27.6123 8.45752C27.6123 8.19515 27.6864 7.97087 27.8345 7.78467C27.9826 7.59847 28.2048 7.41862 28.501 7.24512C28.1328 7.08854 27.8366 6.83464 27.6123 6.4834C27.3923 6.12793 27.2822 5.7111 27.2822 5.23291C27.2822 4.7251 27.3901 4.29346 27.606 3.93799C27.8218 3.57829 28.137 3.30534 28.5518 3.11914C28.9665 2.92871 29.4679 2.8335 30.0562 2.8335C30.1831 2.8335 30.3206 2.84196 30.4688 2.85889C30.6211 2.87158 30.7607 2.88851 30.8877 2.90967C31.0189 2.9266 31.1183 2.94564 31.186 2.9668H33.6172V3.79834L32.4238 4.02051C32.5381 4.18132 32.6291 4.3654 32.6968 4.57275C32.7645 4.77588 32.7983 4.99805 32.7983 5.23926C32.7983 5.96712 32.5465 6.54053 32.043 6.95947C31.5436 7.37419 30.8538 7.58154 29.9736 7.58154C29.762 7.57308 29.5568 7.55615 29.3579 7.53076C29.2056 7.62386 29.0892 7.72754 29.0088 7.8418C28.9284 7.95182 28.8882 8.07666 28.8882 8.21631C28.8882 8.33057 28.9284 8.42367 29.0088 8.49561C29.0892 8.56331 29.2077 8.6141 29.3643 8.64795C29.5251 8.6818 29.7197 8.69873 29.9482 8.69873H31.1606C31.9308 8.69873 32.519 8.86165 32.9253 9.1875C33.3315 9.51335 33.5347 9.99154 33.5347 10.6221C33.5347 11.4219 33.2046 12.0376 32.5444 12.4692C31.8843 12.9051 30.9342 13.123 29.6943 13.123ZM29.7515 12.0757C30.272 12.0757 30.71 12.0249 31.0654 11.9233C31.4209 11.8218 31.6896 11.6758 31.8716 11.4854C32.0535 11.2992 32.1445 11.077 32.1445 10.8188C32.1445 10.5903 32.0874 10.4147 31.9731 10.292C31.8589 10.1693 31.6875 10.0846 31.459 10.0381C31.2305 9.99154 30.9469 9.96826 30.6084 9.96826H29.5039C29.2288 9.96826 28.9855 10.0106 28.7739 10.0952C28.5623 10.1841 28.3973 10.311 28.2788 10.4761C28.1646 10.6411 28.1074 10.84 28.1074 11.0728C28.1074 11.3944 28.2492 11.6419 28.5327 11.8154C28.8205 11.9889 29.2267 12.0757 29.7515 12.0757ZM30.0435 6.604C30.4793 6.604 30.8031 6.48551 31.0146 6.24854C31.2262 6.00732 31.332 5.66878 31.332 5.23291C31.332 4.75895 31.222 4.40348 31.002 4.1665C30.7861 3.92952 30.4645 3.81104 30.0371 3.81104C29.6182 3.81104 29.2987 3.93164 29.0786 4.17285C28.8628 4.41406 28.7549 4.77165 28.7549 5.24561C28.7549 5.67301 28.8628 6.00732 29.0786 6.24854C29.2987 6.48551 29.6203 6.604 30.0435 6.604ZM41.1201 6.4707C41.1201 7.05469 41.0439 7.57308 40.8916 8.02588C40.7393 8.47868 40.5171 8.86165 40.2251 9.1748C39.9331 9.48372 39.5819 9.7207 39.1714 9.88574C38.7609 10.0465 38.2975 10.127 37.7812 10.127C37.2988 10.127 36.8566 10.0465 36.4546 9.88574C36.0526 9.7207 35.7035 9.48372 35.4072 9.1748C35.1152 8.86165 34.8888 8.47868 34.728 8.02588C34.5672 7.57308 34.4868 7.05469 34.4868 6.4707C34.4868 5.69629 34.6201 5.04036 34.8867 4.50293C35.1576 3.96126 35.5426 3.54867 36.042 3.26514C36.5413 2.98161 37.1359 2.83984 37.8257 2.83984C38.4731 2.83984 39.0444 2.98161 39.5396 3.26514C40.0347 3.54867 40.4219 3.96126 40.7012 4.50293C40.9805 5.0446 41.1201 5.70052 41.1201 6.4707ZM36.0229 6.4707C36.0229 6.98275 36.0843 7.42074 36.207 7.78467C36.334 8.1486 36.5286 8.4279 36.791 8.62256C37.0534 8.81299 37.3919 8.9082 37.8066 8.9082C38.2214 8.9082 38.5599 8.81299 38.8223 8.62256C39.0846 8.4279 39.2772 8.1486 39.3999 7.78467C39.5226 7.42074 39.584 6.98275 39.584 6.4707C39.584 5.95866 39.5226 5.5249 39.3999 5.16943C39.2772 4.80973 39.0846 4.53678 38.8223 4.35059C38.5599 4.16016 38.2192 4.06494 37.8003 4.06494C37.1825 4.06494 36.7318 4.2723 36.4482 4.68701C36.1647 5.10173 36.0229 5.69629 36.0229 6.4707Z" fill="#A6ADB4"/>
</svg>
