<svg width="46" height="14" viewBox="0 0 46 14" fill="none" xmlns="http://www.w3.org/2000/svg">
<path d="M6.86816 10H0.583984V8.87646L2.98975 6.43896C3.45524 5.96501 3.83822 5.55664 4.13867 5.21387C4.43913 4.86686 4.6613 4.5389 4.80518 4.22998C4.95329 3.92106 5.02734 3.58464 5.02734 3.2207C5.02734 2.77214 4.89827 2.43359 4.64014 2.20508C4.382 1.97233 4.04134 1.85596 3.61816 1.85596C3.21615 1.85596 2.84375 1.93636 2.50098 2.09717C2.16243 2.25374 1.8112 2.47803 1.44727 2.77002L0.628418 1.78613C0.886556 1.56608 1.16162 1.36507 1.45361 1.18311C1.74984 1.00114 2.07992 0.857259 2.44385 0.751465C2.80778 0.641439 3.22249 0.586426 3.68799 0.586426C4.2762 0.586426 4.78402 0.69222 5.21143 0.903809C5.63883 1.11117 5.9668 1.40104 6.19531 1.77344C6.42806 2.14583 6.54443 2.57959 6.54443 3.07471C6.54443 3.57406 6.44499 4.03532 6.24609 4.4585C6.0472 4.88167 5.76367 5.30062 5.39551 5.71533C5.02734 6.12581 4.58936 6.57227 4.08154 7.05469L2.47559 8.62256V8.69238H6.86816V10ZM16.4468 2.83984C17.2339 2.83984 17.8263 3.04297 18.2241 3.44922C18.6261 3.85547 18.8271 4.50716 18.8271 5.4043V10H17.3354V5.6709C17.3354 5.1377 17.2318 4.73568 17.0244 4.46484C16.8171 4.19401 16.5018 4.05859 16.0786 4.05859C15.4862 4.05859 15.0588 4.24902 14.7964 4.62988C14.5382 5.00651 14.4092 5.55452 14.4092 6.27393V10H12.9175V5.6709C12.9175 5.31543 12.8709 5.01921 12.7778 4.78223C12.689 4.54102 12.5514 4.36117 12.3652 4.24268C12.179 4.11995 11.9442 4.05859 11.6606 4.05859C11.2502 4.05859 10.9222 4.15169 10.6768 4.33789C10.4355 4.52409 10.262 4.79915 10.1562 5.16309C10.0505 5.52279 9.99756 5.96501 9.99756 6.48975V10H8.50586V2.97314H9.66748L9.87695 3.91895H9.95947C10.1034 3.6735 10.2811 3.47249 10.4927 3.31592C10.7085 3.15511 10.9476 3.03662 11.21 2.96045C11.4723 2.88005 11.7453 2.83984 12.0288 2.83984C12.5535 2.83984 12.9958 2.93294 13.3555 3.11914C13.7152 3.30111 13.9839 3.5804 14.1616 3.95703H14.2759C14.4959 3.57617 14.8027 3.29476 15.1963 3.11279C15.5898 2.93083 16.0067 2.83984 16.4468 2.83984ZM27.041 2.83984C27.9297 2.83984 28.6004 3.03662 29.0532 3.43018C29.5103 3.82373 29.7388 4.43734 29.7388 5.271V10H28.6787L28.3931 9.00342H28.3423C28.1434 9.25732 27.9382 9.4668 27.7266 9.63184C27.515 9.79688 27.2695 9.9196 26.9902 10C26.7152 10.0846 26.3787 10.127 25.981 10.127C25.562 10.127 25.1875 10.0508 24.8574 9.89844C24.5273 9.74186 24.2671 9.50488 24.0767 9.1875C23.8862 8.87012 23.791 8.4681 23.791 7.98145C23.791 7.25781 24.0597 6.71403 24.5972 6.3501C25.1388 5.98617 25.9556 5.78516 27.0474 5.74707L28.2661 5.70264V5.33447C28.2661 4.84782 28.1519 4.50081 27.9233 4.29346C27.6991 4.0861 27.3817 3.98242 26.9712 3.98242C26.62 3.98242 26.2793 4.0332 25.9492 4.13477C25.6191 4.23633 25.2975 4.36117 24.9844 4.50928L24.502 3.45557C24.8447 3.2736 25.234 3.12549 25.6699 3.01123C26.11 2.89697 26.5671 2.83984 27.041 2.83984ZM28.2598 6.64209L27.3521 6.67383C26.6073 6.69922 26.0846 6.82617 25.7842 7.05469C25.4837 7.2832 25.3335 7.59635 25.3335 7.99414C25.3335 8.34115 25.4372 8.59505 25.6445 8.75586C25.8519 8.91243 26.1248 8.99072 26.4634 8.99072C26.9797 8.99072 27.4071 8.84473 27.7456 8.55273C28.0884 8.25651 28.2598 7.82275 28.2598 7.25146V6.64209ZM33.833 13.123C32.8809 13.123 32.1509 12.9517 31.6431 12.6089C31.1353 12.2661 30.8813 11.7858 30.8813 11.168C30.8813 10.7363 31.0168 10.3703 31.2876 10.0698C31.5584 9.7736 31.9456 9.56836 32.4492 9.4541C32.2588 9.36947 32.0938 9.23828 31.9541 9.06055C31.8187 8.87858 31.751 8.67757 31.751 8.45752C31.751 8.19515 31.825 7.97087 31.9731 7.78467C32.1213 7.59847 32.3434 7.41862 32.6396 7.24512C32.2715 7.08854 31.9753 6.83464 31.751 6.4834C31.5309 6.12793 31.4209 5.7111 31.4209 5.23291C31.4209 4.7251 31.5288 4.29346 31.7446 3.93799C31.9604 3.57829 32.2757 3.30534 32.6904 3.11914C33.1051 2.92871 33.6066 2.8335 34.1948 2.8335C34.3218 2.8335 34.4593 2.84196 34.6074 2.85889C34.7598 2.87158 34.8994 2.88851 35.0264 2.90967C35.1576 2.9266 35.257 2.94564 35.3247 2.9668H37.7559V3.79834L36.5625 4.02051C36.6768 4.18132 36.7677 4.3654 36.8354 4.57275C36.9032 4.77588 36.937 4.99805 36.937 5.23926C36.937 5.96712 36.6852 6.54053 36.1816 6.95947C35.6823 7.37419 34.9925 7.58154 34.1123 7.58154C33.9007 7.57308 33.6955 7.55615 33.4966 7.53076C33.3442 7.62386 33.2279 7.72754 33.1475 7.8418C33.0671 7.95182 33.0269 8.07666 33.0269 8.21631C33.0269 8.33057 33.0671 8.42367 33.1475 8.49561C33.2279 8.56331 33.3464 8.6141 33.5029 8.64795C33.6637 8.6818 33.8584 8.69873 34.0869 8.69873H35.2993C36.0695 8.69873 36.6577 8.86165 37.064 9.1875C37.4702 9.51335 37.6733 9.99154 37.6733 10.6221C37.6733 11.4219 37.3433 12.0376 36.6831 12.4692C36.0229 12.9051 35.0729 13.123 33.833 13.123ZM33.8901 12.0757C34.4106 12.0757 34.8486 12.0249 35.2041 11.9233C35.5596 11.8218 35.8283 11.6758 36.0103 11.4854C36.1922 11.2992 36.2832 11.077 36.2832 10.8188C36.2832 10.5903 36.2261 10.4147 36.1118 10.292C35.9976 10.1693 35.8262 10.0846 35.5977 10.0381C35.3691 9.99154 35.0856 9.96826 34.7471 9.96826H33.6426C33.3675 9.96826 33.1242 10.0106 32.9126 10.0952C32.701 10.1841 32.536 10.311 32.4175 10.4761C32.3032 10.6411 32.2461 10.84 32.2461 11.0728C32.2461 11.3944 32.3879 11.6419 32.6714 11.8154C32.9591 11.9889 33.3654 12.0757 33.8901 12.0757ZM34.1821 6.604C34.618 6.604 34.9417 6.48551 35.1533 6.24854C35.3649 6.00732 35.4707 5.66878 35.4707 5.23291C35.4707 4.75895 35.3607 4.40348 35.1406 4.1665C34.9248 3.92952 34.6032 3.81104 34.1758 3.81104C33.7568 3.81104 33.4373 3.93164 33.2173 4.17285C33.0015 4.41406 32.8936 4.77165 32.8936 5.24561C32.8936 5.67301 33.0015 6.00732 33.2173 6.24854C33.4373 6.48551 33.759 6.604 34.1821 6.604ZM45.2588 6.4707C45.2588 7.05469 45.1826 7.57308 45.0303 8.02588C44.8779 8.47868 44.6558 8.86165 44.3638 9.1748C44.0718 9.48372 43.7205 9.7207 43.3101 9.88574C42.8996 10.0465 42.4362 10.127 41.9199 10.127C41.4375 10.127 40.9953 10.0465 40.5933 9.88574C40.1912 9.7207 39.8421 9.48372 39.5459 9.1748C39.2539 8.86165 39.0275 8.47868 38.8667 8.02588C38.7059 7.57308 38.6255 7.05469 38.6255 6.4707C38.6255 5.69629 38.7588 5.04036 39.0254 4.50293C39.2962 3.96126 39.6813 3.54867 40.1807 3.26514C40.68 2.98161 41.2746 2.83984 41.9644 2.83984C42.6118 2.83984 43.1831 2.98161 43.6782 3.26514C44.1733 3.54867 44.5605 3.96126 44.8398 4.50293C45.1191 5.0446 45.2588 5.70052 45.2588 6.4707ZM40.1616 6.4707C40.1616 6.98275 40.223 7.42074 40.3457 7.78467C40.4727 8.1486 40.6673 8.4279 40.9297 8.62256C41.1921 8.81299 41.5306 8.9082 41.9453 8.9082C42.36 8.9082 42.6986 8.81299 42.9609 8.62256C43.2233 8.4279 43.4159 8.1486 43.5386 7.78467C43.6613 7.42074 43.7227 6.98275 43.7227 6.4707C43.7227 5.95866 43.6613 5.5249 43.5386 5.16943C43.4159 4.80973 43.2233 4.53678 42.9609 4.35059C42.6986 4.16016 42.3579 4.06494 41.939 4.06494C41.3211 4.06494 40.8704 4.2723 40.5869 4.68701C40.3034 5.10173 40.1616 5.69629 40.1616 6.4707Z" fill="#A6ADB4"/>
</svg>
